<?xml version="1.0" encoding="utf-8"?>
<!-- Generator: Adobe Illustrator 18.0.0, SVG Export Plug-In . SVG Version: 6.00 Build 0)  -->
<!DOCTYPE svg PUBLIC "-//W3C//DTD SVG 1.1//EN" "http://www.w3.org/Graphics/SVG/1.1/DTD/svg11.dtd">
<svg version="1.1" id="Layer_1" xmlns="http://www.w3.org/2000/svg" xmlns:xlink="http://www.w3.org/1999/xlink" x="0px" y="0px"
	 viewBox="0 0 81.1 47.4" enable-background="new 0 0 81.1 47.4" xml:space="preserve">
<path fill="none" stroke="#FDFDFD" stroke-width="1.1339" stroke-miterlimit="10" d="M33.4,46.1H14.5V30.9c0,0,0-1.5-0.7-1.8
	c-0.7-0.3-1-0.4-1.6-0.2c-0.7,0.2-4.7,1.6-5.1,1.6c-0.4,0-1.8,0.1-2.9-1c-1.2-1.1-2.3-2.7-2.5-3c-0.1-0.4-1.1-3.3-0.8-4.9
	c0.3-1.5,1.1-3.4,2.7-4.1c1.5-0.8,3-0.8,4.4-0.3c1.4,0.5,4.6,2.2,4.9,2.1c0.3-0.1,1.6-1.1,1.6-1.7c0-0.6-0.5-7.9-0.5-7.9l-0.6-9
	c0,0,16.4-0.1,18.3,0.4c1.9,0.5,4.2,0.4,3.4,2.7c-0.8,2.3-1.8,2.5-2.1,3.4c-0.3,0.9-1.9,2.7-0.4,4.5c1.5,1.7,3.2,3.2,5,3.2
	c1.9,0.1,5.9,0,7.2-0.6c1.4-0.6,4.3-2.9,4.3-4s-2-3.8-2.7-4.5c-0.6-0.8-1.2-3.4,0.7-3.7c2-0.2,18-0.2,18-0.2v14.2
	c0,0-0.8,3.2,2.3,3.2c3.1,0,3.7-1.7,5.6-1.7c1.8,0,6.5,0.8,7,3.9c0.4,3,0.1,6.9-1.5,8c-1.7,1.1-2.7,3-5.5,2.5
	c-2.7-0.5-4.8-2.8-5.3-2.6c-0.6,0.2-2.2,0.2-2.2,2.6s-0.2,14.6-0.2,14.6H49"/>
</svg>
